<svg xmlns="http://www.w3.org/2000/svg" viewBox="0 0 520 520"><style/><g id="front"><circle cx="260" cy="260" r="205" fill="none" stroke="#e6e6e6" stroke-width="100" stroke-miterlimit="10" id="background_1_"/><path d="M260 55c113.2 0 205 91.8 205 205s-91.8 205-205 205S55 373.2 55 260" fill="none" stroke="#ff7bac" stroke-width="100" stroke-miterlimit="10" id="_x37_5"/><g id="text"><path d="M157.8 238.3h-9c6.3-13.6 11.7-26.8 16.1-39.8 13.8.9 27.4 1.3 40.8 1.3 14.9 0 30.7-.4 47.6-1.3v7.4c-10.8 29.1-22.1 62-33.9 98.4-9.7 29.9-16.8 53.1-21.2 69.6-4.9-.6-8.6-.8-11-.8-2.3 0-5.7.3-10.2.8l-2.2-2.1c5.3-11.1 10.1-21.6 14.2-31.5 6.5-15.7 13.9-34.2 22.2-55.7l24.9-65.8-47.3-.4c-9.1 0-15 .8-17.6 2.5-3.7 2.5-8.1 8.3-13.4 17.4zM363 198.5l1.7 2.1c-3.6 6.1-7 12.5-10.1 19.1-15.8-.7-30.1-1.1-42.9-1.1H298c-2.4 9.7-5 19.5-7.8 29.4 17.6 0 32.5 3.8 44.5 11.4 17 10.7 25.5 26.6 25.5 48 0 12.4-2.9 23.7-8.8 33.7-5.9 10.1-14.5 18-25.7 24-11.2 5.9-22.1 8.9-32.6 8.9-8.1 0-17.6-2.3-28.4-6.9 1.9-9.5 3.3-19.4 4-29.7h7.3c3.2 8.2 7.1 14 11.8 17.4 4.6 3.4 10.3 5.1 17.1 5.1 12.5 0 21.8-4.3 28-13 6.2-8.7 9.3-18.5 9.3-29.6 0-9.1-2.2-17.3-6.6-24.5-4.4-7.2-11-12.7-19.8-16.5-8.8-3.8-18.1-5.7-28-5.7-3.1 0-7.5.4-13.4 1.1l-2.8-3.6c8.6-23.3 14.8-46.5 18.8-69.6 14.2.9 27.7 1.3 40.5 1.3 10.7 0 21.5-.5 32.1-1.3z" fill="#4d4d4d"/><path d="M195.5 159.2l-.3-2.9h-.2c-1.3 1.8-3.8 3.5-7.1 3.5-4.7 0-7.1-3.3-7.1-6.7 0-5.6 5-8.7 14-8.6v-.5c0-1.9-.5-5.4-5.3-5.4-2.2 0-4.4.7-6 1.7l-1-2.8c1.9-1.2 4.7-2.1 7.6-2.1 7.1 0 8.8 4.8 8.8 9.5v8.7c0 2 .1 4 .4 5.6h-3.8zm-.6-11.8c-4.6-.1-9.8.7-9.8 5.2 0 2.7 1.8 4 4 4 3 0 4.9-1.9 5.6-3.9.1-.4.2-.9.2-1.3v-4zm11.8-5.1c0-2.4 0-4.4-.2-6.3h3.7l.2 3.8h.1c1.2-2.2 3.8-4.4 7.7-4.4 3.2 0 8.2 1.9 8.2 9.9v13.9h-4.2v-13.4c0-3.7-1.4-6.9-5.4-6.9-2.8 0-4.9 2-5.7 4.3-.2.5-.3 1.2-.3 2v14h-4.2v-16.9zm40.5 16.9l-.3-2.9h-.1c-1.3 1.8-3.8 3.5-7.1 3.5-4.7 0-7.1-3.3-7.1-6.7 0-5.6 5-8.7 14-8.6v-.5c0-1.9-.5-5.4-5.3-5.4-2.2 0-4.4.7-6 1.7l-1-2.8c1.9-1.2 4.7-2.1 7.6-2.1 7.1 0 8.8 4.8 8.8 9.5v8.7c0 2 .1 4 .4 5.6h-3.9zm-.7-11.8c-4.6-.1-9.8.7-9.8 5.2 0 2.7 1.8 4 4 4 3 0 4.9-1.9 5.6-3.9.1-.4.2-.9.2-1.3v-4zm11.9-22.2h4.2v34.1h-4.2v-34.1zm13.8 10.8l5.1 13.7c.5 1.5 1.1 3.4 1.5 4.8h.1c.4-1.4.9-3.2 1.5-4.8L285 136h4.5l-6.3 16.6c-3 8-5.1 12-8 14.5-2.1 1.8-4.1 2.5-5.2 2.7l-1.1-3.6c1.1-.3 2.4-1 3.7-2.1 1.2-.9 2.6-2.5 3.6-4.7.2-.4.3-.8.3-1 0-.2-.1-.6-.3-1.1l-8.6-21.4h4.6zm21.2 18.9c1.2.8 3.5 1.7 5.6 1.7 3.1 0 4.5-1.5 4.5-3.5s-1.2-3.1-4.3-4.3c-4.2-1.5-6.1-3.8-6.1-6.6 0-3.7 3-6.8 8-6.8 2.4 0 4.4.7 5.7 1.4l-1.1 3.1c-.9-.6-2.6-1.3-4.8-1.3-2.5 0-3.9 1.4-3.9 3.2 0 1.9 1.4 2.8 4.4 3.9 4 1.5 6.1 3.6 6.1 7 0 4.1-3.2 7-8.7 7-2.5 0-4.9-.6-6.5-1.6l1.1-3.2zm25.2-25.4c0 1.4-1 2.6-2.7 2.6-1.5 0-2.5-1.2-2.5-2.6 0-1.5 1.1-2.6 2.6-2.6 1.6-.1 2.6 1.1 2.6 2.6zm-4.7 29.7V136h4.2v23.2h-4.2zm11.7-4.3c1.2.8 3.5 1.7 5.6 1.7 3.1 0 4.5-1.5 4.5-3.5s-1.2-3.1-4.3-4.3c-4.2-1.5-6.1-3.8-6.1-6.6 0-3.7 3-6.8 8-6.8 2.4 0 4.4.7 5.7 1.4l-1.1 3.1c-.9-.6-2.6-1.3-4.8-1.3-2.5 0-3.9 1.4-3.9 3.2 0 1.9 1.4 2.8 4.4 3.9 4 1.5 6.1 3.6 6.1 7 0 4.1-3.2 7-8.7 7-2.5 0-4.9-.6-6.5-1.6l1.1-3.2z" fill="#b3b3b3"/><path fill="none" stroke="#ff7bac" stroke-width="3" stroke-miterlimit="10" d="M179.5 172.5l161.5 3"/><path fill="none" d="M370.9 162.9h3.8v.6h-3.8z"/></g></g></svg>