<svg version="1.1" id="Layer_1" xmlns="http://www.w3.org/2000/svg" x="0" y="0" viewBox="0 0 510 510" xml:space="preserve"><style/><circle cx="255" cy="255" r="205" fill="none" stroke="#ff931e" stroke-width="100" stroke-miterlimit="10" id="background"/><g id="text"><path d="M214.5 164c-1.6.8-5.2 2-9.7 2-10.2 0-16.8-6.9-16.8-17.2 0-10.4 7.1-17.9 18.1-17.9 3.6 0 6.8.9 8.5 1.7l-1.4 4.7c-1.5-.8-3.8-1.6-7.1-1.6-7.7 0-11.9 5.7-11.9 12.8 0 7.8 5 12.6 11.7 12.6 3.5 0 5.8-.9 7.5-1.7l1.1 4.6zm37.4-15.9c0 12.5-8.7 17.9-16.8 17.9-9.1 0-16.2-6.7-16.2-17.4 0-11.3 7.4-17.9 16.8-17.9 9.6 0 16.2 7 16.2 17.4zm-26.8.3c0 7.4 4.3 13 10.3 13 5.9 0 10.3-5.5 10.3-13.1 0-5.7-2.9-13-10.1-13-7.4 0-10.5 6.7-10.5 13.1zm63.7-32.7v40.8c0 3 .1 6.4.3 8.7h-5.5l-.3-5.9h-.1c-1.9 3.8-6 6.6-11.5 6.6-8.2 0-14.4-6.9-14.4-17.2-.1-11.2 6.9-18.1 15.1-18.1 5.2 0 8.7 2.4 10.2 5.2h.1v-20.2h6.1zm-6.2 29.5c0-.8-.1-1.8-.3-2.6-.9-3.9-4.3-7.1-8.9-7.1-6.4 0-10.1 5.6-10.1 13.1 0 6.8 3.4 12.5 10 12.5 4.1 0 7.9-2.7 9-7.3.2-.8.3-1.7.3-2.7v-5.9zm19.8 4.3c.1 8.3 5.4 11.7 11.6 11.7 4.4 0 7-.8 9.4-1.7l1 4.4c-2.2 1-5.9 2.1-11.2 2.1-10.4 0-16.6-6.8-16.6-17s6-18.2 15.8-18.2c11 0 14 9.7 14 15.9 0 1.3-.1 2.2-.2 2.9h-23.8zm18-4.4c.1-3.9-1.6-10-8.5-10-6.2 0-8.9 5.7-9.4 10h17.9z" fill="#b3b3b3"/><path id="line" fill="none" stroke="#ff931e" stroke-width="3" stroke-miterlimit="10" d="M181.4 181.1H334"/><path d="M131.8 224.6v-5c12.2-5 20.8-8.7 26-11.1 2.4-1.1 5.4-2.8 9.1-5l2.7 2c-1.4 18.3-2.1 41.1-2.1 68.3 0 23.5.1 36.9.2 40.1.1 6.3.6 10.3 1.5 11.9.4.8 1 1.4 1.8 1.8.3.1 5.1 1.4 14.3 3.9v5.2c-12.7-.7-21.9-1-27.8-1-6.8 0-14.6.3-23.5 1v-5.2c9-2.3 13.9-3.8 14.8-4.2.9-.5 1.5-1.1 1.9-1.9.6-1.1 1-5.1 1.2-11.9.1-2.3.1-14.7.1-36.9l-.1-36.9-.2-8.7c-.1-3.5-.5-5.8-1.4-6.9-.9-1.1-2.2-1.7-4.2-1.7-2.1 0-6.9.7-14.3 2.2zm80 50.5c0-25.7 4.7-44.7 14.1-56.9 7.6-9.8 17.4-14.7 29.4-14.7 7.6 0 14.4 2.1 20.3 6.2s10.6 10.7 14.1 19.7 5.2 21.1 5.2 36.2c0 14.8-1.6 28.2-4.7 40.2s-8.5 20.9-16 27c-5.7 4.5-13 6.7-21.8 6.7-13.8 0-24.1-5.6-30.7-16.9-6.6-11.2-9.9-27.1-9.9-47.5zm18.4-5.2c0 12.7.6 22.9 1.7 30.5 1.1 7.6 2.9 13.8 5.3 18.6 2.4 4.8 4.8 8.1 7.4 10 2.5 1.9 5.6 2.8 9.2 2.8 4.3 0 8.1-1.4 11.3-4.2 3.3-2.8 6.1-8.1 8.4-15.9 2.4-7.8 3.5-19.3 3.5-34.6 0-14.2-1.1-27.7-3.2-40.4-1-5.6-2.4-10.3-4.2-14.2-1.8-3.9-4.1-6.7-6.6-8.6-2.6-1.9-5.9-2.8-9.9-2.8-3.8 0-7 1-9.6 2.9-2.6 1.9-4.9 4.8-6.8 8.6-1.4 2.8-2.6 7-3.7 12.6-1.9 9.8-2.8 21.3-2.8 34.7zm76.1 5.2c0-25.7 4.7-44.7 14.1-56.9 7.6-9.8 17.4-14.7 29.4-14.7 7.6 0 14.4 2.1 20.3 6.2s10.6 10.7 14.1 19.7 5.2 21.1 5.2 36.2c0 14.8-1.6 28.2-4.7 40.2s-8.5 20.9-16 27c-5.7 4.5-13 6.7-21.8 6.7-13.8 0-24.1-5.6-30.7-16.9-6.6-11.2-9.9-27.1-9.9-47.5zm18.4-5.2c0 12.7.6 22.9 1.7 30.5 1.1 7.6 2.9 13.8 5.3 18.6 2.4 4.8 4.8 8.1 7.4 10 2.5 1.9 5.6 2.8 9.2 2.8 4.3 0 8.1-1.4 11.3-4.2 3.3-2.8 6.1-8.1 8.4-15.9 2.4-7.8 3.5-19.3 3.5-34.6 0-14.2-1.1-27.7-3.2-40.4-1-5.6-2.4-10.3-4.2-14.2-1.8-3.9-4.1-6.7-6.6-8.6-2.6-1.9-5.9-2.8-9.9-2.8-3.8 0-7 1-9.6 2.9-2.6 1.9-4.9 4.8-6.8 8.6-1.4 2.8-2.6 7-3.7 12.6-1.9 9.8-2.8 21.3-2.8 34.7z" fill="#4d4d4d"/></g></svg>