<svg version="1.1" id="Layer_1" xmlns="http://www.w3.org/2000/svg" x="0" y="0" viewBox="0 0 510 510" xml:space="preserve"><style/><circle cx="255" cy="255" r="205" fill="none" stroke="#e6e6e6" stroke-width="100" stroke-miterlimit="10" id="background"/><path d="M255 50c113.2 0 205 91.8 205 205s-91.8 205-205 205S50 368.2 50 255c0-80.3 46.9-153.3 120-186.6" fill="none" stroke="#ff1d25" stroke-width="100" stroke-miterlimit="10" id="front"/><g id="text"><path d="M189.6 129.9V158c0 2.1 0 4.4.2 6H186l-.2-4h-.1c-1.3 2.6-4.1 4.6-7.9 4.6-5.6 0-9.9-4.8-9.9-11.8 0-7.7 4.8-12.5 10.4-12.5 3.6 0 6 1.7 7 3.6h.1V130h4.2zm-4.3 20.3c0-.5 0-1.2-.2-1.8-.6-2.7-2.9-4.9-6.1-4.9-4.4 0-7 3.8-7 9 0 4.7 2.3 8.6 6.9 8.6 2.8 0 5.4-1.9 6.2-5 .1-.6.2-1.2.2-1.8v-4.1zm24.1 13.8l-.3-2.9h-.1c-1.3 1.8-3.8 3.5-7.1 3.5-4.7 0-7.1-3.3-7.1-6.7 0-5.6 5-8.7 14-8.6v-.5c0-1.9-.5-5.4-5.3-5.4-2.2 0-4.4.7-6 1.7l-1-2.8c1.9-1.2 4.7-2.1 7.6-2.1 7.1 0 8.8 4.8 8.8 9.5v8.7c0 2 .1 4 .4 5.6h-3.9zm-.6-11.9c-4.6-.1-9.8.7-9.8 5.2 0 2.7 1.8 4 4 4 3 0 4.9-1.9 5.6-3.9.1-.4.2-.9.2-1.3v-4zm15.8-18v6.7h6v3.2h-6v12.5c0 2.9.8 4.5 3.2 4.5 1.1 0 1.9-.1 2.4-.3l.2 3.2c-.8.3-2.1.6-3.7.6-2 0-3.6-.6-4.6-1.8-1.2-1.2-1.6-3.3-1.6-6V144h-3.6v-3.2h3.6v-5.6l4.1-1.1zm23.7 29.9l-.3-2.9h-.1c-1.3 1.8-3.8 3.5-7.1 3.5-4.7 0-7.1-3.3-7.1-6.7 0-5.6 5-8.7 14-8.6v-.5c0-1.9-.5-5.4-5.3-5.4-2.2 0-4.4.7-6 1.7l-1-2.8c1.9-1.2 4.7-2.1 7.6-2.1 7.1 0 8.8 4.8 8.8 9.5v8.7c0 2 .1 4 .4 5.6h-3.9zm-.7-11.9c-4.6-.1-9.8.7-9.8 5.2 0 2.7 1.8 4 4 4 3 0 4.9-1.9 5.6-3.9.1-.4.2-.9.2-1.3v-4zm10.8 11.9c.1-1.6.2-3.9.2-6v-28.1h4.2v14.6h.1c1.5-2.6 4.2-4.3 7.9-4.3 5.8 0 9.8 4.8 9.8 11.9 0 8.3-5.2 12.4-10.4 12.4-3.4 0-6-1.3-7.8-4.4h-.1l-.3 3.9h-3.6zm4.3-9.3c0 .5.1 1.1.2 1.5.8 2.9 3.3 4.9 6.3 4.9 4.4 0 7.1-3.6 7.1-8.9 0-4.7-2.4-8.6-6.9-8.6-2.9 0-5.6 2-6.4 5.2-.1.5-.2 1.1-.2 1.7v4.2zm36 9.3l-.3-2.9h-.1c-1.3 1.8-3.8 3.5-7.1 3.5-4.7 0-7.1-3.3-7.1-6.7 0-5.6 5-8.7 14-8.6v-.5c0-1.9-.5-5.4-5.3-5.4-2.2 0-4.4.7-6 1.7l-1-2.8c1.9-1.2 4.7-2.1 7.6-2.1 7.1 0 8.8 4.8 8.8 9.5v8.7c0 2 .1 4 .4 5.6h-3.9zm-.6-11.9c-4.6-.1-9.8.7-9.8 5.2 0 2.7 1.8 4 4 4 3 0 4.9-1.9 5.6-3.9.1-.4.2-.9.2-1.3v-4zm10.3 7.6c1.2.8 3.5 1.7 5.6 1.7 3.1 0 4.5-1.5 4.5-3.5s-1.2-3.1-4.3-4.3c-4.2-1.5-6.1-3.8-6.1-6.6 0-3.7 3-6.8 8-6.8 2.4 0 4.4.7 5.7 1.4l-1.1 3.1c-.9-.6-2.6-1.3-4.8-1.3-2.5 0-3.9 1.4-3.9 3.2 0 1.9 1.4 2.8 4.4 3.9 4 1.5 6.1 3.6 6.1 7 0 4.1-3.2 7-8.7 7-2.5 0-4.9-.6-6.5-1.6l1.1-3.2zm22-6.5c.1 5.7 3.7 8.1 8 8.1 3 0 4.8-.5 6.4-1.2l.7 3c-1.5.7-4 1.4-7.7 1.4-7.2 0-11.4-4.7-11.4-11.7 0-7 4.1-12.5 10.9-12.5 7.6 0 9.6 6.7 9.6 10.9 0 .9-.1 1.5-.1 2h-16.4zm12.3-3.1c0-2.7-1.1-6.9-5.9-6.9-4.3 0-6.1 3.9-6.5 6.9h12.4z" fill="#b3b3b3"/><path id="line" fill="none" stroke="#ff1d25" stroke-width="3" stroke-miterlimit="10" d="M166 172h179"/><path d="M154.2 365.9l-2.3-9.8c13.1-4.8 24.5-11.1 34.2-18.6 9.7-7.6 18-16.9 24.8-27.9 4.8-7.8 9.1-18 12.7-30.6-9 8.8-16.5 14.8-22.3 17.9-5.8 3.1-11.5 4.7-17 4.7-11.9 0-22.3-4.8-31.1-14.3S140 265 140 248.9c0-18.4 5.5-33.4 16.5-44.9s24.4-17.3 40.2-17.3c15.5 0 28.1 5.3 37.8 15.8 9.7 10.5 14.6 26 14.6 46.3 0 16.5-3.6 33-10.8 49.6-7.2 16.6-17.5 30.3-30.9 41-13.4 10.7-31.1 19.5-53.2 26.5zm7.3-130.1c0 16.1 3.3 28.1 9.9 36.1 6.6 8 14.6 12 23.9 12 8.1 0 15.3-3.4 21.5-10.1 6.2-6.7 9.3-15.6 9.3-26.7 0-13.7-3.3-25.6-9.9-35.5s-15-14.9-25.2-14.9c-8.1 0-15 3.4-20.9 10.2s-8.6 16.3-8.6 28.9zm206.2-46.3l1.7 2.1c-3.6 6.1-7 12.5-10.1 19.1-15.8-.7-30.1-1.1-42.9-1.1h-13.8c-2.4 9.7-5 19.5-7.8 29.4 17.6 0 32.5 3.8 44.5 11.4 17 10.7 25.5 26.6 25.5 48 0 12.4-2.9 23.7-8.8 33.7-5.9 10.1-14.5 18-25.7 24-11.2 5.9-22.1 8.9-32.6 8.9-8.1 0-17.6-2.3-28.4-6.9 1.9-9.5 3.3-19.4 4-29.7h7.3c3.2 8.2 7.2 14 11.8 17.4 4.6 3.4 10.3 5.1 17.1 5.1 12.5 0 21.8-4.3 28-13 6.2-8.7 9.3-18.5 9.3-29.6 0-9.1-2.2-17.3-6.6-24.5-4.4-7.2-11-12.7-19.8-16.5-8.8-3.8-18.1-5.7-28-5.7-3.1 0-7.5.4-13.4 1.1l-2.8-3.6c8.6-23.3 14.8-46.5 18.8-69.6 14.2.9 27.7 1.3 40.5 1.3 10.9 0 21.7-.4 32.2-1.3z" fill="#4d4d4d"/></g></svg>