<?xml version="1.0" encoding="utf-8"?>
<!-- Generator: Adobe Illustrator 22.1.0, SVG Export Plug-In . SVG Version: 6.00 Build 0)  -->
<svg version="1.1" id="Layer_1" xmlns="http://www.w3.org/2000/svg" xmlns:xlink="http://www.w3.org/1999/xlink" x="0px" y="0px"
	 viewBox="0 0 510 510" style="enable-background:new 0 0 510 510;" xml:space="preserve">
<style type="text/css">
	.st0{fill:none;stroke:#FF931E;stroke-width:100;stroke-miterlimit:10;}
	.st1{enable-background:new    ;}
	.st2{fill:#B3B3B3;}
	.st3{fill:none;stroke:#FF931E;stroke-width:3;stroke-miterlimit:10;}
	.st4{fill:#4D4D4D;}
</style>
<title>code</title>
<g id="background">
	<circle class="st0" cx="255" cy="255" r="205"/>
</g>
<g id="text">
	<g class="st1">
		<path class="st2" d="M214.5,164c-1.6,0.8-5.2,2-9.7,2c-10.2,0-16.8-6.9-16.8-17.2c0-10.4,7.1-17.9,18.1-17.9
			c3.6,0,6.8,0.9,8.5,1.7l-1.4,4.7c-1.5-0.8-3.8-1.6-7.1-1.6c-7.7,0-11.9,5.7-11.9,12.8c0,7.8,5,12.6,11.7,12.6
			c3.5,0,5.8-0.9,7.5-1.7L214.5,164z"/>
		<path class="st2" d="M251.9,148.1c0,12.5-8.7,17.9-16.8,17.9c-9.1,0-16.2-6.7-16.2-17.4c0-11.3,7.4-17.9,16.8-17.9
			C245.3,130.7,251.9,137.7,251.9,148.1z M225.1,148.4c0,7.4,4.3,13,10.3,13c5.9,0,10.3-5.5,10.3-13.1c0-5.7-2.9-13-10.1-13
			C228.2,135.3,225.1,142,225.1,148.4z"/>
		<path class="st2" d="M288.8,115.7v40.8c0,3,0.1,6.4,0.3,8.7h-5.5l-0.3-5.9h-0.1c-1.9,3.8-6,6.6-11.5,6.6
			c-8.2,0-14.4-6.9-14.4-17.2c-0.1-11.2,6.9-18.1,15.1-18.1c5.2,0,8.7,2.4,10.2,5.2h0.1v-20.2H288.8z M282.6,145.2
			c0-0.8-0.1-1.8-0.3-2.6c-0.9-3.9-4.3-7.1-8.9-7.1c-6.4,0-10.1,5.6-10.1,13.1c0,6.8,3.4,12.5,10,12.5c4.1,0,7.9-2.7,9-7.3
			c0.2-0.8,0.3-1.7,0.3-2.7V145.2z"/>
		<path class="st2" d="M302.4,149.5c0.1,8.3,5.4,11.7,11.6,11.7c4.4,0,7-0.8,9.4-1.7l1,4.4c-2.2,1-5.9,2.1-11.2,2.1
			c-10.4,0-16.6-6.8-16.6-17c0-10.2,6-18.2,15.8-18.2c11,0,14,9.7,14,15.9c0,1.3-0.1,2.2-0.2,2.9H302.4z M320.4,145.1
			c0.1-3.9-1.6-10-8.5-10c-6.2,0-8.9,5.7-9.4,10H320.4z"/>
	</g>
	<line id="line" class="st3" x1="181.4" y1="181.1" x2="334" y2="181.1"/>
	<g class="st1">
		<path class="st4" d="M131.8,224.6v-5c12.2-5,20.8-8.7,26-11.1c2.4-1.1,5.4-2.8,9.1-5l2.7,2c-1.4,18.3-2.1,41.1-2.1,68.3
			c0,23.5,0.1,36.9,0.2,40.1c0.1,6.3,0.6,10.3,1.5,11.9c0.4,0.8,1,1.4,1.8,1.8c0.3,0.1,5.1,1.4,14.3,3.9v5.2
			c-12.7-0.7-21.9-1-27.8-1c-6.8,0-14.6,0.3-23.5,1v-5.2c9-2.3,13.9-3.8,14.8-4.2c0.9-0.5,1.5-1.1,1.9-1.9c0.6-1.1,1-5.1,1.2-11.9
			c0.1-2.3,0.1-14.7,0.1-36.9l-0.1-36.9l-0.2-8.7c-0.1-3.5-0.5-5.8-1.4-6.9c-0.9-1.1-2.2-1.7-4.2-1.7
			C144,222.4,139.2,223.1,131.8,224.6z"/>
		<path class="st4" d="M211.8,275.1c0-25.7,4.7-44.7,14.1-56.9c7.6-9.8,17.4-14.7,29.4-14.7c7.6,0,14.4,2.1,20.3,6.2
			c5.9,4.1,10.6,10.7,14.1,19.7c3.5,9,5.2,21.1,5.2,36.2c0,14.8-1.6,28.2-4.7,40.2s-8.5,20.9-16,27c-5.7,4.5-13,6.7-21.8,6.7
			c-13.8,0-24.1-5.6-30.7-16.9C215.1,311.4,211.8,295.5,211.8,275.1z M230.2,269.9c0,12.7,0.6,22.9,1.7,30.5
			c1.1,7.6,2.9,13.8,5.3,18.6c2.4,4.8,4.8,8.1,7.4,10c2.5,1.9,5.6,2.8,9.2,2.8c4.3,0,8.1-1.4,11.3-4.2c3.3-2.8,6.1-8.1,8.4-15.9
			c2.4-7.8,3.5-19.3,3.5-34.6c0-14.2-1.1-27.7-3.2-40.4c-1-5.6-2.4-10.3-4.2-14.2c-1.8-3.9-4.1-6.7-6.6-8.6
			c-2.6-1.9-5.9-2.8-9.9-2.8c-3.8,0-7,1-9.6,2.9c-2.6,1.9-4.9,4.8-6.8,8.6c-1.4,2.8-2.6,7-3.7,12.6
			C231.1,245,230.2,256.5,230.2,269.9z"/>
		<path class="st4" d="M306.3,275.1c0-25.7,4.7-44.7,14.1-56.9c7.6-9.8,17.4-14.7,29.4-14.7c7.6,0,14.4,2.1,20.3,6.2
			c5.9,4.1,10.6,10.7,14.1,19.7c3.5,9,5.2,21.1,5.2,36.2c0,14.8-1.6,28.2-4.7,40.2s-8.5,20.9-16,27c-5.7,4.5-13,6.7-21.8,6.7
			c-13.8,0-24.1-5.6-30.7-16.9C309.6,311.4,306.3,295.5,306.3,275.1z M324.7,269.9c0,12.7,0.6,22.9,1.7,30.5
			c1.1,7.6,2.9,13.8,5.3,18.6c2.4,4.8,4.8,8.1,7.4,10c2.5,1.9,5.6,2.8,9.2,2.8c4.3,0,8.1-1.4,11.3-4.2c3.3-2.8,6.1-8.1,8.4-15.9
			c2.4-7.8,3.5-19.3,3.5-34.6c0-14.2-1.1-27.7-3.2-40.4c-1-5.6-2.4-10.3-4.2-14.2c-1.8-3.9-4.1-6.7-6.6-8.6
			c-2.6-1.9-5.9-2.8-9.9-2.8c-3.8,0-7,1-9.6,2.9c-2.6,1.9-4.9,4.8-6.8,8.6c-1.4,2.8-2.6,7-3.7,12.6
			C325.6,245,324.7,256.5,324.7,269.9z"/>
	</g>
</g>
</svg>
