<?xml version="1.0" encoding="utf-8"?>
<!-- Generator: Adobe Illustrator 22.1.0, SVG Export Plug-In . SVG Version: 6.00 Build 0)  -->
<svg version="1.1" id="Layer_1" xmlns="http://www.w3.org/2000/svg" xmlns:xlink="http://www.w3.org/1999/xlink" x="0px" y="0px"
	 viewBox="0 0 510 510" style="enable-background:new 0 0 510 510;" xml:space="preserve">
<style type="text/css">
	.st0{fill:none;stroke:#E6E6E6;stroke-width:100;stroke-miterlimit:10;}
	.st1{fill:none;stroke:#FF1D25;stroke-width:100;stroke-miterlimit:10;}
	.st2{enable-background:new    ;}
	.st3{fill:#B3B3B3;}
	.st4{fill:none;stroke:#FF1D25;stroke-width:3;stroke-miterlimit:10;}
	.st5{fill:#4D4D4D;}
</style>
<title>database</title>
<g id="background">
	<circle class="st0" cx="255" cy="255" r="205"/>
</g>
<g id="front">
	<path class="st1" d="M255,50c113.2,0,205,91.8,205,205s-91.8,205-205,205S50,368.2,50,255c0-80.3,46.9-153.3,120-186.6"/>
</g>
<g id="text">
	<g>
		<g class="st2">
			<path class="st3" d="M189.6,129.9V158c0,2.1,0,4.4,0.2,6H186l-0.2-4h-0.1c-1.3,2.6-4.1,4.6-7.9,4.6c-5.6,0-9.9-4.8-9.9-11.8
				c0-7.7,4.8-12.5,10.4-12.5c3.6,0,6,1.7,7,3.6h0.1v-13.9H189.6z M185.3,150.2c0-0.5,0-1.2-0.2-1.8c-0.6-2.7-2.9-4.9-6.1-4.9
				c-4.4,0-7,3.8-7,9c0,4.7,2.3,8.6,6.9,8.6c2.8,0,5.4-1.9,6.2-5c0.1-0.6,0.2-1.2,0.2-1.8V150.2z"/>
			<path class="st3" d="M209.4,164l-0.3-2.9H209c-1.3,1.8-3.8,3.5-7.1,3.5c-4.7,0-7.1-3.3-7.1-6.7c0-5.6,5-8.7,14-8.6v-0.5
				c0-1.9-0.5-5.4-5.3-5.4c-2.2,0-4.4,0.7-6,1.7l-1-2.8c1.9-1.2,4.7-2.1,7.6-2.1c7.1,0,8.8,4.8,8.8,9.5v8.7c0,2,0.1,4,0.4,5.6H209.4
				z M208.8,152.1c-4.6-0.1-9.8,0.7-9.8,5.2c0,2.7,1.8,4,4,4c3,0,4.9-1.9,5.6-3.9c0.1-0.4,0.2-0.9,0.2-1.3V152.1z"/>
			<path class="st3" d="M224.6,134.1v6.7h6v3.2h-6v12.5c0,2.9,0.8,4.5,3.2,4.5c1.1,0,1.9-0.1,2.4-0.3l0.2,3.2
				c-0.8,0.3-2.1,0.6-3.7,0.6c-2,0-3.6-0.6-4.6-1.8c-1.2-1.2-1.6-3.3-1.6-6V144h-3.6v-3.2h3.6v-5.6L224.6,134.1z"/>
			<path class="st3" d="M248.3,164l-0.3-2.9h-0.1c-1.3,1.8-3.8,3.5-7.1,3.5c-4.7,0-7.1-3.3-7.1-6.7c0-5.6,5-8.7,14-8.6v-0.5
				c0-1.9-0.5-5.4-5.3-5.4c-2.2,0-4.4,0.7-6,1.7l-1-2.8c1.9-1.2,4.7-2.1,7.6-2.1c7.1,0,8.8,4.8,8.8,9.5v8.7c0,2,0.1,4,0.4,5.6H248.3
				z M247.6,152.1c-4.6-0.1-9.8,0.7-9.8,5.2c0,2.7,1.8,4,4,4c3,0,4.9-1.9,5.6-3.9c0.1-0.4,0.2-0.9,0.2-1.3V152.1z"/>
			<path class="st3" d="M258.4,164c0.1-1.6,0.2-3.9,0.2-6v-28.1h4.2v14.6h0.1c1.5-2.6,4.2-4.3,7.9-4.3c5.8,0,9.8,4.8,9.8,11.9
				c0,8.3-5.2,12.4-10.4,12.4c-3.4,0-6-1.3-7.8-4.4h-0.1L262,164H258.4z M262.7,154.7c0,0.5,0.1,1.1,0.2,1.5
				c0.8,2.9,3.3,4.9,6.3,4.9c4.4,0,7.1-3.6,7.1-8.9c0-4.7-2.4-8.6-6.9-8.6c-2.9,0-5.6,2-6.4,5.2c-0.1,0.5-0.2,1.1-0.2,1.7V154.7z"/>
			<path class="st3" d="M298.7,164l-0.3-2.9h-0.1c-1.3,1.8-3.8,3.5-7.1,3.5c-4.7,0-7.1-3.3-7.1-6.7c0-5.6,5-8.7,14-8.6v-0.5
				c0-1.9-0.5-5.4-5.3-5.4c-2.2,0-4.4,0.7-6,1.7l-1-2.8c1.9-1.2,4.7-2.1,7.6-2.1c7.1,0,8.8,4.8,8.8,9.5v8.7c0,2,0.1,4,0.4,5.6H298.7
				z M298.1,152.1c-4.6-0.1-9.8,0.7-9.8,5.2c0,2.7,1.8,4,4,4c3,0,4.9-1.9,5.6-3.9c0.1-0.4,0.2-0.9,0.2-1.3V152.1z"/>
			<path class="st3" d="M308.4,159.7c1.2,0.8,3.5,1.7,5.6,1.7c3.1,0,4.5-1.5,4.5-3.5c0-2-1.2-3.1-4.3-4.3c-4.2-1.5-6.1-3.8-6.1-6.6
				c0-3.7,3-6.8,8-6.8c2.4,0,4.4,0.7,5.7,1.4l-1.1,3.1c-0.9-0.6-2.6-1.3-4.8-1.3c-2.5,0-3.9,1.4-3.9,3.2c0,1.9,1.4,2.8,4.4,3.9
				c4,1.5,6.1,3.6,6.1,7c0,4.1-3.2,7-8.7,7c-2.5,0-4.9-0.6-6.5-1.6L308.4,159.7z"/>
			<path class="st3" d="M330.4,153.2c0.1,5.7,3.7,8.1,8,8.1c3,0,4.8-0.5,6.4-1.2l0.7,3c-1.5,0.7-4,1.4-7.7,1.4
				c-7.2,0-11.4-4.7-11.4-11.7c0-7,4.1-12.5,10.9-12.5c7.6,0,9.6,6.7,9.6,10.9c0,0.9-0.1,1.5-0.1,2H330.4z M342.7,150.1
				c0-2.7-1.1-6.9-5.9-6.9c-4.3,0-6.1,3.9-6.5,6.9H342.7z"/>
		</g>
	</g>
	<line id="line" class="st4" x1="166" y1="172" x2="345" y2="172"/>
	<g class="st2">
		<path class="st5" d="M154.2,365.9l-2.3-9.8c13.1-4.8,24.5-11.1,34.2-18.6c9.7-7.6,18-16.9,24.8-27.9c4.8-7.8,9.1-18,12.7-30.6
			c-9,8.8-16.5,14.8-22.3,17.9c-5.8,3.1-11.5,4.7-17,4.7c-11.9,0-22.3-4.8-31.1-14.3c-8.8-9.5-13.2-22.3-13.2-38.4
			c0-18.4,5.5-33.4,16.5-44.9c11-11.5,24.4-17.3,40.2-17.3c15.5,0,28.1,5.3,37.8,15.8c9.7,10.5,14.6,26,14.6,46.3
			c0,16.5-3.6,33-10.8,49.6c-7.2,16.6-17.5,30.3-30.9,41C194,350.1,176.3,358.9,154.2,365.9z M161.5,235.8c0,16.1,3.3,28.1,9.9,36.1
			c6.6,8,14.6,12,23.9,12c8.1,0,15.3-3.4,21.5-10.1c6.2-6.7,9.3-15.6,9.3-26.7c0-13.7-3.3-25.6-9.9-35.5s-15-14.9-25.2-14.9
			c-8.1,0-15,3.4-20.9,10.2S161.5,223.2,161.5,235.8z"/>
		<path class="st5" d="M367.7,189.5l1.7,2.1c-3.6,6.1-7,12.5-10.1,19.1c-15.8-0.7-30.1-1.1-42.9-1.1h-13.8c-2.4,9.7-5,19.5-7.8,29.4
			c17.6,0,32.5,3.8,44.5,11.4c17,10.7,25.5,26.6,25.5,48c0,12.4-2.9,23.7-8.8,33.7c-5.9,10.1-14.5,18-25.7,24
			c-11.2,5.9-22.1,8.9-32.6,8.9c-8.1,0-17.6-2.3-28.4-6.9c1.9-9.5,3.3-19.4,4-29.7h7.3c3.2,8.2,7.2,14,11.8,17.4
			c4.6,3.4,10.3,5.1,17.1,5.1c12.5,0,21.8-4.3,28-13c6.2-8.7,9.3-18.5,9.3-29.6c0-9.1-2.2-17.3-6.6-24.5c-4.4-7.2-11-12.7-19.8-16.5
			c-8.8-3.8-18.1-5.7-28-5.7c-3.1,0-7.5,0.4-13.4,1.1l-2.8-3.6c8.6-23.3,14.8-46.5,18.8-69.6c14.2,0.9,27.7,1.3,40.5,1.3
			C346.4,190.8,357.2,190.4,367.7,189.5z"/>
	</g>
</g>
</svg>
