<?xml version="1.0" encoding="utf-8"?>
<!-- Generator: Adobe Illustrator 22.1.0, SVG Export Plug-In . SVG Version: 6.00 Build 0)  -->
<svg version="1.1" id="Layer_1" xmlns="http://www.w3.org/2000/svg" xmlns:xlink="http://www.w3.org/1999/xlink" x="0px" y="0px"
	 viewBox="0 0 510 510" style="enable-background:new 0 0 510 510;" xml:space="preserve">
<style type="text/css">
	.st0{fill:none;stroke:#E6E6E6;stroke-width:100;stroke-miterlimit:10;}
	.st1{fill:none;stroke:#2E3192;stroke-width:100;stroke-miterlimit:10;}
	.st2{fill:none;stroke:#BDCCD4;stroke-width:100;stroke-miterlimit:10;}
	.st3{enable-background:new    ;}
	.st4{fill:#4D4D4D;}
	.st5{fill:#B3B3B3;}
	.st6{fill:none;stroke:#BDCCD4;stroke-width:3;stroke-miterlimit:10;}
</style>
<title>uxdesign</title>
<g id="background">
	<circle class="st0" cx="255" cy="255" r="205"/>
</g>
<g id="front">
	<path class="st1" d="M255,50"/>
	<path class="st2" d="M255,50c113.2,0,205,91.8,205,205s-91.8,205-205,205S50,368.2,50,255c-0.1-49.6,17.9-97.6,50.6-134.9"/>
</g>
<g id="text">
	<g class="st3">
		<path class="st4" d="M185.8,276.9c-14.1-10-23.2-17.9-27.1-23.9c-4-6-5.9-12.6-5.9-20c0-11.5,4.7-21.6,14-30.2s21.7-12.8,37-12.8
			c13.8,0,24.4,3.4,31.8,10.1s11.1,15.1,11.1,25.1c0,7.8-2.4,15.2-7.2,22.2c-4.8,6.9-13.4,14.6-25.6,23c10.1,7.2,17.6,13,22.3,17.3
			c4.7,4.4,8.3,9,10.8,14c2.5,5,3.7,10.9,3.7,17.7c0,13.4-5,24.9-15.1,34.6s-23.3,14.5-39.7,14.5c-15.1,0-26.8-3.9-35-11.6
			s-12.4-17.4-12.4-29.1c0-8.7,2.3-16.6,7-23.8C160.1,296.8,170.2,287.8,185.8,276.9z M194.9,283.3c-9.2,6.3-15.9,13-20,20
			c-4.2,7.1-6.2,14.3-6.2,21.7c0,9,3.1,16.6,9.4,22.8c6.2,6.3,13.9,9.4,22.9,9.4c8.3,0,15.2-2.8,20.7-8.4s8.2-12.4,8.2-20.6
			c0-5.2-1.2-10.3-3.7-15c-2.5-4.8-6.6-9.8-12.4-15.3C209.6,294.2,203.3,289.3,194.9,283.3z M204.7,263.8
			c9.1-6.3,15.5-12.3,19.1-17.9c3.6-5.6,5.4-11.6,5.4-17.9c0-8.1-2.6-14.8-7.9-20c-5.3-5.2-12.1-7.8-20.6-7.8
			c-8.4,0-15.1,2.4-20.1,7.1c-5,4.7-7.6,10.6-7.6,17.6c0,4.7,0.8,8.7,2.5,12.2c1.7,3.5,4.7,7.2,8.9,11.1
			C188.8,252,195.5,257.2,204.7,263.8z"/>
		<path class="st4" d="M366.1,193l1.7,2.1c-3.6,6.1-7,12.5-10.1,19.1c-15.8-0.7-30.1-1.1-42.9-1.1h-13.8c-2.4,9.7-5,19.5-7.8,29.4
			c17.6,0,32.5,3.8,44.5,11.4c17,10.7,25.5,26.6,25.5,48c0,12.4-2.9,23.7-8.8,33.7c-5.9,10.1-14.5,18-25.7,24
			c-11.2,5.9-22.1,8.9-32.6,8.9c-8.1,0-17.6-2.3-28.4-6.9c1.9-9.5,3.3-19.4,4-29.7h7.3c3.2,8.2,7.1,14,11.8,17.4
			c4.6,3.4,10.3,5.1,17.1,5.1c12.5,0,21.8-4.3,28-13c6.2-8.7,9.3-18.5,9.3-29.6c0-9.1-2.2-17.3-6.6-24.5c-4.4-7.2-11-12.7-19.8-16.5
			c-8.8-3.8-18.1-5.7-28-5.7c-3.1,0-7.5,0.4-13.4,1.1l-2.8-3.6c8.6-23.3,14.8-46.5,18.8-69.6c14.2,0.9,27.7,1.3,40.5,1.3
			C344.8,194.3,355.5,193.8,366.1,193z"/>
	</g>
	<g class="st3">
		<path class="st5" d="M204.8,137.4v19.2c0,7.2,3.2,10.3,7.5,10.3c4.8,0,7.9-3.2,7.9-10.3v-19.2h4.2v18.9c0,9.9-5.2,14-12.2,14
			c-6.6,0-11.6-3.8-11.6-13.8v-19.1H204.8z"/>
		<path class="st5" d="M249.4,169.8l-4.1-7.2c-1.7-2.7-2.7-4.5-3.7-6.4h-0.1c-0.9,1.9-1.8,3.6-3.5,6.4l-3.9,7.1h-4.8l9.9-16.4
			l-9.5-16h4.8l4.3,7.6c1.2,2.1,2.1,3.7,3,5.5h0.1c0.9-1.9,1.7-3.4,2.9-5.5l4.4-7.6h4.8l-9.8,15.7l10.1,16.6H249.4z"/>
		<path class="st5" d="M255.4,171.7l13.4-34.8h3.3l-13.4,34.8H255.4z"/>
		<path class="st5" d="M279.8,137.4v19.2c0,7.2,3.2,10.3,7.5,10.3c4.8,0,7.9-3.2,7.9-10.3v-19.2h4.2v18.9c0,9.9-5.2,14-12.2,14
			c-6.6,0-11.6-3.8-11.6-13.8v-19.1H279.8z"/>
		<path class="st5" d="M310.8,137.4v32.4h-4.2v-32.4H310.8z"/>
	</g>
	<line id="line" class="st6" x1="193" y1="179.1" x2="321" y2="179.1"/>
</g>
</svg>
